<svg version="1.1" xmlns="http://www.w3.org/2000/svg" xmlns:xlink="http://www.w3.org/1999/xlink" preserveAspectRatio="none" width="27.41811" height="84.38608" viewBox="0,0,27.41811,84.38608"><g transform="translate(-226.29094,-137.80696)"><g data-paper-data="{&quot;isPaintingLayer&quot;:true}" fill="#000000" fill-rule="nonzero" stroke="none" stroke-width="0" stroke-linecap="butt" stroke-linejoin="miter" stroke-miterlimit="10" stroke-dasharray="" stroke-dashoffset="0" style="mix-blend-mode: normal"><path d="M226.35077,179.48571c0,0 8.24264,-2.53642 13.71872,-9.53454c2.22001,-2.83705 4.58927,-7.36866 5.66448,-15.30169c1.14875,-8.47565 0.97797,-16.84252 0.97797,-16.84252h6.9826c0,0 0.7155,22.36172 -7.90207,32.44199c-9.89247,11.57156 -19.24657,10.24369 -19.24657,10.24369z" data-paper-data="{&quot;index&quot;:null}"/><path d="M226.31505,179.579c0,0 9.52511,-1.39951 19.41758,10.17205c8.61757,10.08027 7.90207,32.44199 7.90207,32.44199h-6.9826c0,0 0.17078,-8.36686 -0.97797,-16.84252c-1.0752,-7.93302 -3.44447,-12.46464 -5.66447,-15.30169c-5.47608,-6.99812 -13.71872,-9.67781 -13.71872,-9.67781z" data-paper-data="{&quot;index&quot;:null}"/></g></g></svg>